<?xml version="1.0" encoding="utf-8"?>
<!-- Generator: Adobe Illustrator 27.0.0, SVG Export Plug-In . SVG Version: 6.00 Build 0)  -->
<svg version="1.1" id="图层_1" xmlns="http://www.w3.org/2000/svg" xmlns:xlink="http://www.w3.org/1999/xlink" x="0px" y="0px"
	 viewBox="0 0 80 80" style="enable-background:new 0 0 80 80;" xml:space="preserve">
<path d="M4.9,16.4h70.1c2.2,0,4-1.8,4-3.9c0-2.2-1.8-3.9-4-3.9H4.9c-2.2,0-4,1.8-4,3.9S2.7,16.4,4.9,16.4z M75.1,35.9H4.9
	c-2.2,0-4,1.8-4,3.9s1.8,3.9,4,3.9h70.1c2.2,0,4-1.8,4-3.9C79.1,37.7,77.3,35.9,75.1,35.9L75.1,35.9z M75.1,63.6H4.9
	c-2.2,0-4,1.8-4,3.9s1.8,3.9,4,3.9h70.1c2.2,0,4-1.8,4-3.9C79.1,65.4,77.3,63.6,75.1,63.6L75.1,63.6z"/>
</svg>
